<?xml version="1.0" standalone="no"?><!-- Generator: Gravit.io --><svg xmlns="http://www.w3.org/2000/svg" xmlns:xlink="http://www.w3.org/1999/xlink" style="isolation:isolate" viewBox="0 0 257 98.051" width="257" height="98.051"><defs><clipPath id="_clipPath_Zzm4p7BgCqz4yHmL8p4TQDrOAQRxC1Qs"><rect width="257" height="98.051"/></clipPath></defs><g clip-path="url(#_clipPath_Zzm4p7BgCqz4yHmL8p4TQDrOAQRxC1Qs)"><path d=" M 213.152 25.559 L 200.074 76.957 L 187.664 76.957 L 180.703 49.957 L 180.703 49.957 Q 180.316 48.516 179.385 43.998 L 179.385 43.998 L 179.385 43.998 Q 178.453 39.48 178.313 37.934 L 178.313 37.934 L 178.313 37.934 Q 178.102 39.832 177.258 44.033 L 177.258 44.033 L 177.258 44.033 Q 176.414 48.234 175.957 50.027 L 175.957 50.027 L 169.031 76.957 L 156.656 76.957 L 143.543 25.559 L 154.266 25.559 L 160.84 53.613 L 160.84 53.613 Q 162.563 61.383 163.336 67.078 L 163.336 67.078 L 163.336 67.078 Q 163.547 65.074 164.303 60.873 L 164.303 60.873 L 164.303 60.873 Q 165.059 56.672 165.727 54.352 L 165.727 54.352 L 173.215 25.559 L 183.516 25.559 L 191.004 54.352 L 191.004 54.352 Q 191.496 56.285 192.234 60.258 L 192.234 60.258 L 192.234 60.258 Q 192.973 64.23 193.359 67.078 L 193.359 67.078 L 193.359 67.078 Q 193.711 64.336 194.484 60.24 L 194.484 60.24 L 194.484 60.24 Q 195.258 56.145 195.891 53.613 L 195.891 53.613 L 202.43 25.559 L 213.152 25.559 Z  M 239.449 34.629 L 239.449 76.957 L 228.551 76.957 L 228.551 34.629 L 214.594 34.629 L 214.594 25.559 L 253.406 25.559 L 253.406 34.629 L 239.449 34.629 Z " fill-rule="evenodd" fill="rgb(206,66,145)"/><path d=" M 39.656 40.535 L 39.656 40.535 L 39.656 40.535 Q 39.656 48.34 34.33 52.541 L 34.33 52.541 L 34.33 52.541 Q 29.004 56.742 19.09 56.742 L 19.09 56.742 L 13.043 56.742 L 13.043 76.957 L 7.066 76.957 L 7.066 25.559 L 20.391 25.559 L 20.391 25.559 Q 39.656 25.559 39.656 40.535 Z  M 13.043 30.727 L 13.043 51.609 L 18.422 51.609 L 18.422 51.609 Q 26.367 51.609 29.918 49.043 L 29.918 49.043 L 29.918 49.043 Q 33.469 46.477 33.469 40.816 L 33.469 40.816 L 33.469 40.816 Q 33.469 35.719 30.129 33.223 L 30.129 33.223 L 30.129 33.223 Q 26.789 30.727 19.723 30.727 L 19.723 30.727 L 13.043 30.727 Z  M 55.371 38.426 L 55.371 76.957 L 49.535 76.957 L 49.535 38.426 L 55.371 38.426 Z  M 49.043 27.984 L 49.043 27.984 L 49.043 27.984 Q 49.043 25.98 50.027 25.049 L 50.027 25.049 L 50.027 25.049 Q 51.012 24.117 52.488 24.117 L 52.488 24.117 L 52.488 24.117 Q 53.895 24.117 54.914 25.066 L 54.914 25.066 L 54.914 25.066 Q 55.934 26.016 55.934 27.984 L 55.934 27.984 L 55.934 27.984 Q 55.934 29.953 54.914 30.92 L 54.914 30.92 L 54.914 30.92 Q 53.895 31.887 52.488 31.887 L 52.488 31.887 L 52.488 31.887 Q 51.012 31.887 50.027 30.92 L 50.027 30.92 L 50.027 30.92 Q 49.043 29.953 49.043 27.984 Z  M 99.949 76.957 L 94.113 76.957 L 94.113 52.031 L 94.113 52.031 Q 94.113 47.32 91.969 45 L 91.969 45 L 91.969 45 Q 89.824 42.68 85.254 42.68 L 85.254 42.68 L 85.254 42.68 Q 79.207 42.68 76.395 45.949 L 76.395 45.949 L 76.395 45.949 Q 73.582 49.219 73.582 56.742 L 73.582 56.742 L 73.582 76.957 L 67.746 76.957 L 67.746 38.426 L 72.492 38.426 L 73.441 43.699 L 73.723 43.699 L 73.723 43.699 Q 75.516 40.852 78.75 39.287 L 78.75 39.287 L 78.75 39.287 Q 81.984 37.723 85.957 37.723 L 85.957 37.723 L 85.957 37.723 Q 92.918 37.723 96.434 41.08 L 96.434 41.08 L 96.434 41.08 Q 99.949 44.438 99.949 51.82 L 99.949 51.82 L 99.949 76.957 Z  M 117.422 57.234 L 117.703 57.234 L 117.703 57.234 Q 119.215 55.09 122.309 51.609 L 122.309 51.609 L 134.754 38.426 L 141.68 38.426 L 126.07 54.844 L 142.77 76.957 L 135.703 76.957 L 122.098 58.746 L 117.703 62.543 L 117.703 76.957 L 111.938 76.957 L 111.938 22.254 L 117.703 22.254 L 117.703 51.258 L 117.703 51.258 Q 117.703 53.191 117.422 57.234 L 117.422 57.234 Z " fill-rule="evenodd" fill="rgb(219,114,130)"/></g></svg>