<?xml version="1.0" encoding="utf-8"?>
<!-- Generator: Adobe Illustrator 21.0.2, SVG Export Plug-In . SVG Version: 6.00 Build 0)  -->
<svg version="1.1" id="Layer_1" xmlns="http://www.w3.org/2000/svg" xmlns:xlink="http://www.w3.org/1999/xlink" x="0px" y="0px"
	 viewBox="0 0 1024 1024" style="enable-background:new 0 0 1024 1024;" xml:space="preserve">
<style type="text/css">
	.st0{fill:#FFFFFF;}
	.st1{fill:none;}
	.st2{fill:#DBD7FF;}
	.st3{fill:#1C1C1C;}
	.st4{opacity:0.1;}
</style>
<g>
	<path class="st0" d="M572.1,810.4c-3.2,2.6-6.5,5.1-9.7,7.7h334.7v0c0.4,0,0.9,0,1.3,0c40.4,0,73.1-32.7,73.1-73.1
		s-32.7-73.1-73.1-73.1c-0.4,0-0.9,0-1.3,0v0c0-34.9-12.3-66.9-32.7-92.1c-75.8,38.5-140.6,95.4-202.9,152.5
		C632.3,759,603.1,785.8,572.1,810.4z"/>
	<g>
		<g>
			<path class="st1" d="M294.6,293.6c2.7,4.1,3.7,12-2.3,13.9c-5.2,1.7-9.1-1.9-12.4-5.5c-1.2-1.4-3.2-0.2-3.1,1.4
				c0.3,4.1-0.2,7.6-2.6,11.1c-3.9,5.5-14.5,7-14.2-3.1c0.1-2.3-3.4-2.6-3.5-0.3c-0.3,7.2,5.7,13.6,13.2,11.3
				c6.7-2,9.8-8.7,10.4-15.1c4.8,4.3,10.7,6.4,16.9,1.7c5.5-4.2,3.5-12.6,0.2-17.7C296.1,289.5,293.4,291.8,294.6,293.6z"/>
			<circle class="st1" cx="204.1" cy="291.2" r="10.3"/>
			<path class="st1" d="M152.7,244.7l-62.8-5.2c-3.9-0.3-6.7,3.6-5.1,7.2l21.9,50.5c1.5,3.4,6,4.2,8.5,1.4l41-45.3
				C158.9,250.1,156.9,245,152.7,244.7z"/>
			<path class="st1" d="M343.6,120.6c-1.8-3.4-6.7-3.6-8.8-0.4l-31.7,48.6c-2.1,3.3,0,7.7,3.9,7.9l60.2,4.2c4,0.3,6.8-4,4.9-7.6
				L343.6,120.6z"/>
			<circle class="st1" cx="304.7" cy="243.9" r="10.3"/>
			<circle class="st1" cx="304.7" cy="243.9" r="10.3"/>
			<path class="st1" d="M343.6,120.6c-1.8-3.4-6.7-3.6-8.8-0.4l-31.7,48.6c-2.1,3.3,0,7.7,3.9,7.9l60.2,4.2c4,0.3,6.8-4,4.9-7.6
				L343.6,120.6z"/>
			<circle class="st1" cx="204.1" cy="291.2" r="10.3"/>
			<path class="st1" d="M152.7,244.7l-62.8-5.2c-3.9-0.3-6.7,3.6-5.1,7.2l21.9,50.5c1.5,3.4,6,4.2,8.5,1.4l41-45.3
				C158.9,250.1,156.9,245,152.7,244.7z"/>
			<path class="st1" d="M294.6,293.6c2.7,4.1,3.7,12-2.3,13.9c-5.2,1.7-9.1-1.9-12.4-5.5c-1.2-1.4-3.2-0.2-3.1,1.4
				c0.3,4.1-0.2,7.6-2.6,11.1c-3.9,5.5-14.5,7-14.2-3.1c0.1-2.3-3.4-2.6-3.5-0.3c-0.3,7.2,5.7,13.6,13.2,11.3
				c6.7-2,9.8-8.7,10.4-15.1c4.8,4.3,10.7,6.4,16.9,1.7c5.5-4.2,3.5-12.6,0.2-17.7C296.1,289.5,293.4,291.8,294.6,293.6z"/>
			<path class="st1" d="M294.6,293.6c2.7,4.1,3.7,12-2.3,13.9c-5.2,1.7-9.1-1.9-12.4-5.5c-1.2-1.4-3.2-0.2-3.1,1.4
				c0.3,4.1-0.2,7.6-2.6,11.1c-3.9,5.5-14.5,7-14.2-3.1c0.1-2.3-3.4-2.6-3.5-0.3c-0.3,7.2,5.7,13.6,13.2,11.3
				c6.7-2,9.8-8.7,10.4-15.1c4.8,4.3,10.7,6.4,16.9,1.7c5.5-4.2,3.5-12.6,0.2-17.7C296.1,289.5,293.4,291.8,294.6,293.6z"/>
			<path class="st1" d="M152.7,244.7l-62.8-5.2c-3.9-0.3-6.7,3.6-5.1,7.2l21.9,50.5c1.5,3.4,6,4.2,8.5,1.4l41-45.3
				C158.9,250.1,156.9,245,152.7,244.7z"/>
			<circle class="st1" cx="304.7" cy="243.9" r="10.3"/>
			<circle class="st1" cx="204.1" cy="291.2" r="10.3"/>
			<path class="st1" d="M343.6,120.6c-1.8-3.4-6.7-3.6-8.8-0.4l-31.7,48.6c-2.1,3.3,0,7.7,3.9,7.9l60.2,4.2c4,0.3,6.8-4,4.9-7.6
				L343.6,120.6z"/>
			<path class="st0" d="M419.3,224.3c-4.9,0.4-9.8,0.8-14.6,1.1c-2.9,0.2-3.7-4.3-0.8-4.5c4.3-0.3,8.7-0.6,13-1l-6.5-11.5
				c-2.6,2.3-5.1,4.7-7.5,7.2c-2.1,2.1-5-1.4-3-3.5c2.6-2.7,5.4-5.3,8.2-7.8l-6.7-11.8c-1.3,3.9-2.4,7.9-3.2,12
				c-0.6,2.8-5.1,2.5-4.5-0.4c1.2-5.8,2.7-11.4,4.7-16.9l-50.3-89.3c-2.9-5-10-5.2-13.2-0.5L277,181.9c-2.3,3.3-5.4,6-9,7.8
				l-80.9,39.6c-3.9,1.9-8.3,2.7-12.6,2.3l-102.8-9.9c-5.9-0.6-10.3,5.3-8,10.8l41.6,98c4.2,0.6,8.4,1.2,12.6,2.1
				c2.8,0.6,2.5,5.1-0.4,4.5c-3.4-0.7-6.7-1.2-10.1-1.7l4.5,10.6c2.7-1.9,5.3-3.8,8-5.7c2.4-1.7,5.3,1.8,3,3.5
				c-3.1,2.2-6.1,4.3-9.2,6.5l3.5,8.2c2-3.5,4-7.1,6.1-10.6c1.5-2.5,5.3,0.1,3.7,2.6c-2.7,4.4-5.2,8.8-7.6,13.3l10.3,24.2
				c9.8-1.8,20.5,2,29.1,8.8c31.3-17.2,67.1-27,105.3-27c2.7,0,5.3,0.1,7.9,0.2c33.8-57.4,86.7-102.2,150-125.7
				c0.8-3.1,1.9-6,3.6-8.8L419.3,224.3z M156,253.2l-41,45.3c-2.5,2.8-7,2-8.5-1.4l-21.9-50.5c-1.5-3.6,1.3-7.5,5.1-7.2l62.8,5.2
				C156.9,245,158.9,250.1,156,253.2z M204.1,301.4c-5.7,0-10.3-4.6-10.3-10.3c0-5.7,4.6-10.3,10.3-10.3c5.7,0,10.3,4.6,10.3,10.3
				C214.4,296.8,209.8,301.4,204.1,301.4z M297.2,309.1c-6.2,4.7-12,2.5-16.9-1.7c-0.6,6.5-3.8,13.2-10.4,15.1
				c-7.5,2.2-13.5-4.2-13.2-11.3c0.1-2.3,3.6-1.9,3.5,0.3c-0.4,10.1,10.3,8.6,14.2,3.1c2.4-3.4,2.9-7,2.6-11.1
				c-0.1-1.7,1.9-2.8,3.1-1.4c3.2,3.6,7.1,7.2,12.4,5.5c6-1.9,5-9.8,2.3-13.9c-1.2-1.9,1.4-4.2,2.7-2.3
				C300.6,296.4,302.6,304.9,297.2,309.1z M304.7,254.1c-5.7,0-10.3-4.6-10.3-10.3c0-5.7,4.6-10.3,10.3-10.3s10.3,4.6,10.3,10.3
				C314.9,249.5,310.4,254.1,304.7,254.1z M367.2,180.9l-60.2-4.2c-3.9-0.3-6.1-4.6-3.9-7.9l31.7-48.6c2.1-3.3,7-3.1,8.8,0.4
				l28.5,52.8C374,176.9,371.3,181.2,367.2,180.9z"/>
			<path class="st2" d="M367.2,180.9l-60.2-4.2c-3.9-0.3-6.1-4.6-3.9-7.9l31.7-48.6c2.1-3.3,7-3.1,8.8,0.4l28.5,52.8
				C374,176.9,371.3,181.2,367.2,180.9z"/>
			<path class="st2" d="M156,253.2l-41,45.3c-2.5,2.8-7,2-8.5-1.4l-21.9-50.5c-1.5-3.6,1.3-7.5,5.1-7.2l62.8,5.2
				C156.9,245,158.9,250.1,156,253.2z"/>
		</g>
		<g>
			<path class="st0" d="M427.7,148.9c2-2.1-0.9-5.5-3-3.5c-11.8,12.1-20.7,26.2-26.3,41.8c-2,5.5-3.6,11.1-4.7,16.9
				c-0.6,2.9,4,3.2,4.5,0.4c0.8-4.1,1.9-8.1,3.2-12C406.6,176.2,415.5,161.3,427.7,148.9z"/>
			<path class="st0" d="M410.4,208.4c12-11,25.4-20.2,40.1-27.6c2.6-1.3,0.7-5.4-1.9-4.1c-14.8,7.4-28.3,16.7-40.4,27.7
				c-2.8,2.5-5.5,5.1-8.2,7.8c-2,2.1,0.9,5.6,3,3.5C405.3,213.2,407.8,210.8,410.4,208.4z"/>
			<path class="st0" d="M461.6,214.8c-14.9,2.2-29.8,3.9-44.8,5.2c-4.3,0.4-8.6,0.7-13,1c-2.9,0.2-2.1,4.7,0.8,4.5
				c4.9-0.3,9.8-0.7,14.6-1.1c14.4-1.3,28.8-2.9,43.1-5C465.3,218.8,464.5,214.4,461.6,214.8z"/>
			<path class="st0" d="M107.4,335.4c3.4,0.5,6.7,1.1,10.1,1.7c2.9,0.6,3.3-4,0.4-4.5c-4.2-0.8-8.4-1.5-12.6-2.1
				c-19.2-2.7-38.5-3-57.9-0.8c-2.9,0.3-2.1,4.8,0.8,4.5C68,332,87.8,332.5,107.4,335.4z"/>
			<path class="st0" d="M122.9,343.8c2.4-1.7-0.6-5.1-3-3.5c-2.7,1.9-5.3,3.8-8,5.7c-14.5,10.2-29,20.5-43.4,30.7
				c-2.4,1.7,0.6,5.1,3,3.5c14.1-10,28.2-19.9,42.3-29.9C116.8,348.2,119.8,346,122.9,343.8z"/>
			<path class="st0" d="M123.3,347.9c-2.1,3.5-4.1,7-6.1,10.6c-7.1,12.6-13.4,25.6-18.9,39.1c-1.1,2.7,3.2,4.2,4.3,1.5
				c5-12.1,10.6-23.9,16.9-35.3c2.5-4.5,5-8.9,7.6-13.3C128.6,348,124.8,345.4,123.3,347.9z"/>
		</g>
		<g>
			<path class="st3" d="M294.6,293.6c2.7,4.1,3.7,12-2.3,13.9c-5.2,1.7-9.1-1.9-12.4-5.5c-1.2-1.4-3.2-0.2-3.1,1.4
				c0.3,4.1-0.2,7.6-2.6,11.1c-3.9,5.5-14.5,7-14.2-3.1c0.1-2.3-3.4-2.6-3.5-0.3c-0.3,7.2,5.7,13.6,13.2,11.3
				c6.7-2,9.8-8.7,10.4-15.1c4.8,4.3,10.7,6.4,16.9,1.7c5.5-4.2,3.5-12.6,0.2-17.7C296.1,289.5,293.4,291.8,294.6,293.6z"/>
			<circle class="st3" cx="204.1" cy="291.2" r="10.3"/>
			<circle class="st3" cx="304.7" cy="243.9" r="10.3"/>
		</g>
	</g>
	<line class="st4" x1="429.1" y1="241.7" x2="429.1" y2="241.7"/>
	<path class="st0" d="M119.4,363.8"/>
	<path class="st0" d="M529,235.8c-16.1,0-31.8,1.3-47.1,3.8c13.4,18.9,16.6,47.2-3.1,60.6c-0.4,0.3-0.8,0.6-1.2,0.8
		c-0.5,0.2-0.9,0.4-1.4,0.5c-26.8,10.6-52.8-18.5-55.1-45.1c-60.3,24.1-110.7,67.7-143.3,123.2c-2.6-0.1-5.3-0.2-7.9-0.2
		c-37.2,0-72.3,9.3-103,25.7c13.7,18.4,17.7,46.2-1.3,60.2c-0.4,0.3-0.8,0.6-1.2,0.9c-0.5,0.2-0.9,0.4-1.4,0.6
		c-19.2,8.5-38.8-4.2-49.3-22c-39.1,39.6-63.2,94-63.2,154c0,28.9,5.6,56.4,15.8,81.6C43.2,692.7,27.5,717,27.5,745
		c0,40.4,32.7,73.1,73.1,73.1c0.4,0,0.9,0,1.3,0v0H153h12.1h4.6h5.1l19.2,0h1.3h3.9v0h5.1h2.9H219h222.5
		c60.2-34.6,113-79.3,164.6-125.7c57.6-51.7,114.8-104.8,180.6-145.8c9.9-6.2,21.2-13,33.3-19.7C820.1,366.1,689.7,235.8,529,235.8z
		"/>
	<path class="st2" d="M444.7,238c-6.7,3.5-8.7,10.6-8.2,17.7c0.8,10.2,6.4,20.8,14.3,27.3c10.6,8.8,24.8,6.5,26.6-8.8
		c1.2-10-3.7-20-9.5-27.9C462.1,240,453.8,233.3,444.7,238z"/>
	<path class="st2" d="M135.5,402.6c-7.4,0.5-12.6,6.4-13.7,13.3c-1.6,10.6,4.2,22.3,11.4,29.7c8.8,9,26,13.9,29.8-2.5
		c2.4-10.3-2.9-21.1-8.7-29.3C149.5,408.2,143.3,402.1,135.5,402.6z"/>
	<path class="st2" d="M982.1,527.3c-2.8-2.7-5.7-5.2-8.4-7.3c-0.6-0.5-1.2-1-1.9-1.4c-0.8-0.6-1.6-1.1-2.4-1.5
		c-1.8-1.1-3.5-2-5.3-2.9c-33.3-16.7-72.2-6.8-105.2,7.4c-13.3,5.7-26.3,12.1-39,19.1c-21.5,11.8-42.2,25.1-62.1,39.3
		c-61,43.7-115,96.1-171.3,145.5c-32.2,28.3-65.3,55.5-100.9,79.3c-0.9,0.6-1.7,1.3-2.4,2c-1.4,0.7-2.9,1.5-4.3,2.5
		c-4.7,3-9.5,5.9-14.3,8.9c-46.8,28.4-96.7,52-150.8,62.3c-24,4.6-51.4,8.3-75.4,2.2c-27.3-7-34.2-28.5-30.5-54.1h-44.4
		c-2.2,29,5.4,59.2,28.8,78.3c30.1,24.6,74,24.8,110.6,19.8c80.9-11,155.2-49.8,221.9-95.3c0,0,0,0,0,0l0,0
		c6.7-3.3,13.1-8.3,19.2-13.3c3.2-2.6,6.3-5.2,9.4-7.6c9.5-7.3,18.9-14.8,28.2-22.5c38.2-31.8,73.9-66.4,111.1-99.5
		c37.3-33.2,76.6-64.3,118.6-91.4c14.7-9.5,29.8-18.3,45.3-26.3c5.8-3,11.6-5.8,17.4-8.6c20.1-9.4,47.2-19.7,69-10.1
		c9.1,4,13.7,13.9,23.4,17.3c9.3,3.3,20.5,0,25.6-8.8C999.1,548.6,991.4,536.5,982.1,527.3z"/>
	<g>
		
			<ellipse transform="matrix(0.3819 -0.9242 0.9242 0.3819 -305.7388 657.3958)" class="st3" cx="338.6" cy="557.3" rx="21.3" ry="21.3"/>
		<path class="st3" d="M492.8,665.2c-15.5,4.1-25-4.6-30.9-16.6c-6.4,11.9-17.7,22.2-32,20.7c-16.1-1.7-22.5-18.6-16.3-32.2
			c2-4.3,8.4-0.9,6.5,3.4c-8.7,19,12.9,24.6,24.7,17.1c7.3-4.7,11-11.1,13.7-19.2c1.1-3.3,5.8-3.9,7-0.3c3.3,9.5,7.9,19.5,19.3,20.4
			c13,1,17.3-14.9,15.5-24.8c-0.8-4.6,6.1-6.9,6.9-2.3C509.5,643.8,506.6,661.6,492.8,665.2z"/>
		
			<ellipse transform="matrix(0.3819 -0.9242 0.9242 0.3819 -153.3366 863.2336)" class="st3" cx="568.7" cy="546.3" rx="21.3" ry="21.3"/>
	</g>
</g>
</svg>
